<?xml version="1.0" encoding="utf-8"?>
<svg viewBox="3071.541 1056.035 71.157 66.751" xmlns="http://www.w3.org/2000/svg">
  <defs>
    <clipPath id="clip0_1_595">
      <rect width="124" height="100" fill="white" />
    </clipPath>
    <clipPath id="clip-1">
      <rect width="124" height="100" fill="white" />
    </clipPath>
  </defs>
  <g id="Group" transform="matrix(0.9999999999999999, 0, 0, 0.9999999999999999, 3067.11474609375, 1020.3580932617188)">
    <g id="Group_2">
      <g id="Group_3">
        <g id="Group_4" transform="matrix(1, 0, 0, 1, -51.458408, 35.124981)">
          <path id="Vector_2"
            d="M77.7599 23.44H70.4399C68.9999 23.44 67.6799 23.92 66.7199 25C65.7599 25.96 65.1599 27.28 65.1599 28.72V30.76C65.1599 31.36 65.6399 31.96 66.3599 31.96C66.9599 31.96 67.5599 31.36 67.5599 30.76V28.6C67.5599 27.88 67.7999 27.16 68.3999 26.68C68.9999 26.2 69.7199 25.84 70.5599 25.84H77.8799C78.7199 25.84 79.4399 26.08 80.0399 26.68C80.6399 27.16 80.8799 27.88 80.8799 28.6V30.64C80.8799 31.24 81.3599 31.84 82.0799 31.84C82.6799 31.84 83.2799 31.24 83.2799 30.64V28.6C83.2799 27.28 82.6799 25.84 81.7199 24.88C80.5199 24.04 79.0799 23.44 77.7599 23.44Z"
            fill="#DA291C" />
          <path id="Vector_3"
            d="M74.0399 21.04C77.0399 21.04 79.4399 18.64 79.4399 15.64C79.4399 12.64 77.0399 10.24 74.0399 10.24C71.0399 10.24 68.6399 12.64 68.6399 15.64C68.6399 18.64 71.0399 21.04 74.0399 21.04ZM74.0399 12.64C75.7199 12.64 77.0399 13.96 77.0399 15.64C77.0399 17.32 75.7199 18.64 74.0399 18.64C72.3599 18.64 71.0399 17.32 71.0399 15.64C71.0399 13.96 72.3599 12.64 74.0399 12.64Z"
            fill="#DA291C" />
          <path id="Vector_4"
            d="M90.2398 19.24H88.4398V17.44C88.4398 16.84 87.8398 16.24 87.2398 16.24C86.5198 16.24 86.0398 16.84 86.0398 17.44V19.24H84.2398C83.5198 19.24 83.0398 19.84 83.0398 20.44C83.0398 21.16 83.5198 21.64 84.2398 21.64H86.0398V23.44C86.0398 24.16 86.5198 24.64 87.2398 24.64C87.8398 24.64 88.4398 24.04 88.4398 23.44V21.64H90.2398C90.8398 21.64 91.4398 21.16 91.4398 20.44C91.4398 19.84 90.9598 19.24 90.2398 19.24Z"
            fill="#DA291C" />
        </g>
      </g>
      <g id="Group_5">
        <path id="Vector_7" fill-rule="evenodd" clip-rule="evenodd"
          d="M 57.264 73.065 C 58.104 72.705 58.944 72.585 59.904 72.585 C 60.744 72.585 61.704 72.825 62.544 73.185 C 63.384 73.545 64.104 74.145 64.704 74.745 C 67.104 77.385 66.744 81.585 64.224 83.985 L 55.824 92.385 C 55.464 92.745 54.984 92.985 54.384 92.985 C 53.904 92.985 53.304 92.745 52.944 92.385 L 44.304 83.745 C 43.704 83.145 43.224 82.305 42.864 81.585 C 42.504 80.745 42.384 79.905 42.384 78.945 C 42.384 78.105 42.624 77.145 42.984 76.305 C 43.344 75.465 43.944 74.745 44.544 74.145 C 47.304 71.745 51.384 72.105 53.904 74.625 L 54.384 75.105 L 55.104 74.385 C 55.584 73.905 56.424 73.425 57.264 73.065 Z M 59.784 74.985 C 59.184 74.985 58.584 75.105 58.104 75.225 C 57.624 75.465 57.144 75.705 56.664 76.185 L 55.104 77.745 C 54.624 78.225 53.904 78.225 53.424 77.745 L 52.104 76.425 C 50.424 74.745 47.664 74.625 46.104 76.065 C 45.624 76.425 45.384 76.905 45.144 77.385 C 44.904 77.865 44.784 78.465 44.784 79.065 C 44.784 79.665 44.904 80.145 45.024 80.745 C 45.264 81.225 45.504 81.705 45.984 82.185 L 54.384 90.465 L 62.544 82.305 C 64.224 80.625 64.344 77.985 62.904 76.305 C 62.544 75.825 62.064 75.585 61.584 75.345 C 60.864 75.105 60.384 74.985 59.784 74.985 Z"
          fill="#DA291C" />
        <g clip-path="url(#clip0_1_595)" transform="matrix(1, 0, 0, 1, -18.709612, 72.347672)">
          <path
            d="M81.3603 48.1073H20.4211C19.7283 48.1073 19.1667 48.6711 19.1667 49.3665C19.1667 50.0619 19.7283 50.6256 20.4211 50.6256H81.3602C82.3208 50.6256 83.1025 51.4101 83.1025 52.3746V95.1608C83.1025 96.125 82.3209 96.9097 81.3602 96.9097H4.25097C3.29035 96.9097 2.50864 96.1252 2.50864 95.1608V52.3744C2.50864 51.4101 3.29018 50.6255 4.25097 50.6255H21.7802C22.473 50.6255 23.0346 50.0617 23.0346 49.3663C23.0346 48.671 22.473 48.1072 21.7802 48.1072H4.25097C1.90703 48.1073 0 50.0216 0 52.3744V95.1608C0 97.5136 1.90703 99.4278 4.25097 99.4278H81.36C83.7039 99.4278 85.6109 97.5136 85.6109 95.1608V52.3744C85.6113 50.0216 83.7043 48.1073 81.3603 48.1073Z"
            fill="#009688" />
          <path
            d="M31.5372 91.7947C31.5372 92.4901 32.0989 93.0539 32.7916 93.0539H67.7847C68.4775 93.0539 69.0392 92.4901 69.0392 91.7947C69.0392 87.4204 72.5845 83.8615 76.9425 83.8615C77.6352 83.8615 78.1969 83.2977 78.1969 82.6024V64.9328C78.1969 64.2375 77.6352 63.6737 76.9425 63.6737C72.5847 63.6737 69.0392 60.1149 69.0392 55.7405C69.0392 55.0451 68.4775 54.4813 67.7847 54.4813H52.3655C51.6728 54.4813 51.1111 55.0451 51.1111 55.7405C51.1111 56.4358 51.6728 56.9996 52.3655 56.9996H66.6054C67.1771 61.7584 70.947 65.5428 75.6879 66.1164V81.4186C70.947 81.9924 67.1769 85.7766 66.6054 90.5354H32.7916C32.0987 90.5356 31.5372 91.0993 31.5372 91.7947Z"
            fill="#009688" />
          <path
            d="M53.907 54.4813H17.8267C17.134 54.4813 16.5723 55.0451 16.5723 55.7405C16.5723 60.1148 13.027 63.6737 8.66899 63.6737C7.97624 63.6737 7.41458 64.2375 7.41458 64.9328V82.6025C7.41458 83.2979 7.97624 83.8617 8.66899 83.8617C13.0268 83.8617 16.5723 87.4204 16.5723 91.7949C16.5723 92.4903 17.134 93.054 17.8267 93.054L33.8845 93.054C34.5772 93.054 35.1389 92.4903 35.1389 91.7949C35.1389 91.0995 34.5772 90.5357 33.8845 90.5357L19.006 90.5357C18.4344 85.7769 14.6645 81.9926 9.92356 81.4189V66.1168C14.6645 65.5429 18.4345 61.7588 19.006 57H53.907C54.5998 57 55.1614 56.4362 55.1614 55.7408C55.1614 55.0454 54.5998 54.4813 53.907 54.4813Z"
            fill="#009688" />
          <path opacity="0.4"
            d="M54.5748 67.4786C53.9356 67.7463 53.6336 68.4837 53.9003 69.1255C54.5128 70.5986 54.8233 72.1604 54.8233 73.7675C54.8233 80.4194 49.4322 85.831 42.8055 85.831C36.1786 85.831 30.7875 80.4194 30.7875 73.7675C30.7875 67.1158 36.1786 61.7042 42.8055 61.7042C46.0268 61.7042 49.0523 62.9671 51.3251 65.2603C51.8137 65.7534 52.608 65.7554 53.0991 65.2648C53.5902 64.7742 53.5923 63.9771 53.1036 63.4842C50.3565 60.7124 46.6993 59.1859 42.8055 59.1859C34.7953 59.1859 28.2788 65.7272 28.2788 73.7673C28.2788 81.8078 34.7955 88.3489 42.8055 88.3489C50.8155 88.3489 57.332 81.8076 57.332 73.7673C57.332 71.8257 56.9562 69.9375 56.2153 68.1555C55.9488 67.5139 55.2143 67.2106 54.5748 67.4786Z"
            fill="#009688" />
          <path opacity="0.4"
            d="M43.0165 82.9322C43.5226 82.9322 43.9231 82.53 43.9231 82.0221V80.7522C46.601 80.4983 48.4145 78.9531 48.4145 76.6248C48.4145 74.3602 47.0439 73.0691 43.839 72.265V68.2012C44.556 68.3706 45.2726 68.6881 46.0107 69.1324C46.2216 69.2594 46.4324 69.3229 46.6433 69.3229C47.2969 69.3229 47.8243 68.815 47.8243 68.1587C47.8243 67.6507 47.529 67.3333 47.1917 67.1428C46.2217 66.529 45.1675 66.1268 43.9233 65.9786V65.5129C43.9233 65.005 43.5226 64.6028 43.0167 64.6028C42.5105 64.6028 42.089 65.0052 42.089 65.5129V65.9573C39.4531 66.169 37.6608 67.7353 37.6608 70C37.6608 72.3919 39.0948 73.5559 42.1733 74.36V78.5297C41.0135 78.318 40.0437 77.8311 39.0525 77.1114C38.8628 76.9634 38.6097 76.8786 38.3565 76.8786C37.7029 76.8786 37.1969 77.3867 37.1969 78.0428C37.1969 78.4872 37.4078 78.8259 37.7663 79.0587C39.0525 79.9686 40.5073 80.5401 42.0888 80.7094V82.0216C42.0886 82.53 42.5103 82.9322 43.0165 82.9322ZM43.839 74.7625C45.4626 75.2704 45.9263 75.8419 45.9263 76.7732C45.9263 77.789 45.1885 78.4662 43.839 78.6144V74.7625ZM40.1487 69.8521C40.1487 68.9209 40.8234 68.2012 42.1729 68.074V71.8204C40.5495 71.2913 40.1487 70.7408 40.1487 69.8521Z"
            fill="#009688" />
        </g>
        <path
          d="M 134.81 123.763 L 135.31 129.763 L 110.31 130.263 L 102.31 138.263 L 101.81 179.763 L 96.31 179.763 L 93.81 178.763 L 94.31 124.763 L 95.31 123.263 L 134.81 123.763 Z"
          fill="#00ACC1" fill-opacity="0.2" />
        <path fill-rule="evenodd" clip-rule="evenodd"
          d="M 93.31 125.263 C 93.31 123.606 94.653 122.263 96.31 122.263 L 133.31 122.263 C 134.967 122.263 136.31 123.606 136.31 125.263 L 136.31 130.263 L 134.31 130.263 L 134.31 125.263 C 134.31 124.71 133.863 124.263 133.31 124.263 L 96.31 124.263 C 95.758 124.263 95.31 124.71 95.31 125.263 L 95.31 178.263 C 95.31 178.815 95.758 179.263 96.31 179.263 L 102.31 179.263 L 102.31 181.263 L 96.31 181.263 C 94.653 181.263 93.31 179.92 93.31 178.263 L 93.31 125.263 Z"
          fill="#00ACC1" />
        <path fill-rule="evenodd" clip-rule="evenodd"
          d="M 109.603 129.556 C 109.791 129.368 110.045 129.263 110.31 129.263 L 141.31 129.263 C 142.967 129.263 144.31 130.606 144.31 132.263 L 144.31 148.763 L 142.31 148.763 L 142.31 132.263 C 142.31 131.71 141.863 131.263 141.31 131.263 L 111.31 131.263 L 111.31 136.263 C 111.31 137.92 109.967 139.263 108.31 139.263 L 103.31 139.263 L 103.31 185.263 C 103.31 185.815 103.758 186.263 104.31 186.263 L 141.31 186.263 C 141.863 186.263 142.31 185.815 142.31 185.263 L 142.31 163.263 L 144.31 163.263 L 144.31 185.263 C 144.31 186.92 142.967 188.263 141.31 188.263 L 104.31 188.263 C 102.653 188.263 101.31 186.92 101.31 185.263 L 101.31 138.263 C 101.31 137.998 101.416 137.743 101.603 137.556 L 109.603 129.556 Z M 104.725 137.263 L 108.31 137.263 C 108.863 137.263 109.31 136.815 109.31 136.263 L 109.31 132.677 L 104.725 137.263 Z"
          fill="#00ACC1" />
        <path fill-rule="evenodd" clip-rule="evenodd"
          d="M 107.31 148.263 C 107.31 147.71 107.758 147.263 108.31 147.263 L 123.31 147.263 C 123.863 147.263 124.31 147.71 124.31 148.263 C 124.31 148.815 123.863 149.263 123.31 149.263 L 108.31 149.263 C 107.758 149.263 107.31 148.815 107.31 148.263 Z"
          fill="#00ACC1" fill-opacity="0.2" />
        <path fill-rule="evenodd" clip-rule="evenodd"
          d="M 107.31 153.263 C 107.31 152.71 107.758 152.263 108.31 152.263 L 123.31 152.263 C 123.863 152.263 124.31 152.71 124.31 153.263 C 124.31 153.815 123.863 154.263 123.31 154.263 L 108.31 154.263 C 107.758 154.263 107.31 153.815 107.31 153.263 Z"
          fill="#00ACC1" fill-opacity="0.2" />
        <path fill-rule="evenodd" clip-rule="evenodd"
          d="M 107.31 158.263 C 107.31 157.71 107.758 157.263 108.31 157.263 L 123.31 157.263 C 123.863 157.263 124.31 157.71 124.31 158.263 C 124.31 158.815 123.863 159.263 123.31 159.263 L 108.31 159.263 C 107.758 159.263 107.31 158.815 107.31 158.263 Z"
          fill="#00ACC1" fill-opacity="0.2" />
        <path fill-rule="evenodd" clip-rule="evenodd"
          d="M 107.31 163.263 C 107.31 162.71 107.758 162.263 108.31 162.263 L 123.31 162.263 C 123.863 162.263 124.31 162.71 124.31 163.263 C 124.31 163.815 123.863 164.263 123.31 164.263 L 108.31 164.263 C 107.758 164.263 107.31 163.815 107.31 163.263 Z"
          fill="#00ACC1" fill-opacity="0.2" />
        <path fill-rule="evenodd" clip-rule="evenodd"
          d="M 107.31 179.263 C 107.31 178.71 107.758 178.263 108.31 178.263 L 134.31 178.263 C 134.863 178.263 135.31 178.71 135.31 179.263 C 135.31 179.815 134.863 180.263 134.31 180.263 L 108.31 180.263 C 107.758 180.263 107.31 179.815 107.31 179.263 Z"
          fill="#00ACC1" fill-opacity="0.2" />
        <path fill-rule="evenodd" clip-rule="evenodd"
          d="M 124.735 173.063 C 124.379 173.892 125.218 174.731 126.048 174.376 L 133.472 171.194 C 133.589 171.144 133.696 171.072 133.785 170.982 L 154.726 150.041 C 155.117 149.65 155.117 149.017 154.726 148.627 L 150.484 144.384 C 150.093 143.994 149.46 143.994 149.069 144.384 L 128.129 165.325 C 128.039 165.415 127.967 165.521 127.917 165.638 L 124.735 173.063 Z M 126.836 176.214 C 124.346 177.281 121.83 174.764 122.896 172.275 L 126.078 164.85 C 126.229 164.499 126.445 164.181 126.714 163.911 L 147.655 142.97 C 148.827 141.798 150.726 141.798 151.898 142.97 L 156.141 147.212 C 157.312 148.384 157.312 150.284 156.141 151.455 L 135.2 172.396 C 134.93 172.666 134.611 172.882 134.26 173.032 L 126.836 176.214 Z"
          fill="#00ACC1" />
        <path fill-rule="evenodd" clip-rule="evenodd"
          d="M 153.312 154.284 C 152.922 154.674 152.288 154.674 151.898 154.284 L 144.827 147.212 C 144.436 146.822 144.436 146.189 144.827 145.798 C 145.217 145.408 145.851 145.408 146.241 145.798 L 153.312 152.869 C 153.703 153.26 153.703 153.893 153.312 154.284 Z"
          fill="#00ACC1" />
        <path fill-rule="evenodd" clip-rule="evenodd"
          d="M 135.634 171.961 C 135.244 172.352 134.611 172.352 134.22 171.961 L 127.149 164.89 C 126.759 164.5 126.759 163.866 127.149 163.476 C 127.54 163.085 128.173 163.085 128.563 163.476 L 135.634 170.547 C 136.025 170.938 136.025 171.571 135.634 171.961 Z"
          fill="#00ACC1" />
        <path fill-rule="evenodd" clip-rule="evenodd"
          d="M 139.877 167.719 C 139.487 168.109 138.853 168.109 138.463 167.719 L 131.392 160.648 C 131.001 160.257 131.001 159.624 131.392 159.233 C 131.782 158.843 132.415 158.843 132.806 159.233 L 139.877 166.304 C 140.268 166.695 140.268 167.328 139.877 167.719 Z"
          fill="#00ACC1" />
        <path
          d="M 218.189 163.495 L 218.189 150.695 L 225.189 147.495 L 225.189 161.095 L 223.28 159.495 L 221.689 161.895 L 220.098 160.295 L 218.189 163.495 Z"
          fill="#7CB342" fill-opacity="0.2" />
        <path d="M 217.782 150.153 L 190.189 137.653 L 198.096 134.495 L 225.689 146.995 L 217.782 150.153 Z"
          fill="#7CB342" fill-opacity="0.2" />
        <path fill-rule="evenodd" clip-rule="evenodd"
          d="M 178.652 140.652 C 178.941 140.468 179.303 140.445 179.613 140.59 L 206.613 153.23 C 206.964 153.395 207.189 153.748 207.189 154.136 L 207.189 186.495 C 207.189 186.837 207.014 187.156 206.725 187.339 C 206.437 187.523 206.074 187.546 205.765 187.401 L 178.765 174.761 C 178.413 174.596 178.189 174.243 178.189 173.855 L 178.189 141.495 C 178.189 141.153 178.363 140.835 178.652 140.652 Z M 180.189 143.068 L 180.189 173.219 L 205.189 184.923 L 205.189 154.772 L 180.189 143.068 Z"
          fill="#7CB342" />
        <path fill-rule="evenodd" clip-rule="evenodd"
          d="M 236.761 142.676 C 237.029 142.863 237.189 143.169 237.189 143.495 L 237.189 175.495 C 237.189 175.915 236.927 176.29 236.533 176.434 L 206.533 187.434 C 206.226 187.547 205.884 187.502 205.616 187.315 C 205.348 187.128 205.189 186.822 205.189 186.495 L 205.189 154.495 C 205.189 154.076 205.451 153.701 205.844 153.557 L 235.844 142.557 C 236.151 142.444 236.493 142.489 236.761 142.676 Z M 207.189 155.194 L 207.189 185.064 L 235.189 174.797 L 235.189 144.927 L 207.189 155.194 Z"
          fill="#7CB342" />
        <path fill-rule="evenodd" clip-rule="evenodd"
          d="M 207.358 130.552 C 207.592 130.47 207.848 130.478 208.077 130.574 L 236.577 142.574 C 237.086 142.788 237.325 143.375 237.11 143.884 C 236.896 144.393 236.31 144.631 235.801 144.417 L 207.656 132.567 L 179.52 142.439 C 178.999 142.622 178.428 142.348 178.245 141.827 C 178.062 141.305 178.336 140.735 178.858 140.552 L 207.358 130.552 Z"
          fill="#7CB342" />
        <g clip-path="url(#clip-1)" transform="matrix(1, 0, 0, 1, -162.513306, 102.717903)">
          <path
            d="M81.3603 48.1073H20.4211C19.7283 48.1073 19.1667 48.6711 19.1667 49.3665C19.1667 50.0619 19.7283 50.6256 20.4211 50.6256H81.3602C82.3208 50.6256 83.1025 51.4101 83.1025 52.3746V95.1608C83.1025 96.125 82.3209 96.9097 81.3602 96.9097H4.25097C3.29035 96.9097 2.50864 96.1252 2.50864 95.1608V52.3744C2.50864 51.4101 3.29018 50.6255 4.25097 50.6255H21.7802C22.473 50.6255 23.0346 50.0617 23.0346 49.3663C23.0346 48.671 22.473 48.1072 21.7802 48.1072H4.25097C1.90703 48.1073 0 50.0216 0 52.3744V95.1608C0 97.5136 1.90703 99.4278 4.25097 99.4278H81.36C83.7039 99.4278 85.6109 97.5136 85.6109 95.1608V52.3744C85.6113 50.0216 83.7043 48.1073 81.3603 48.1073Z"
            style="fill: rgb(66, 165, 245);" />
        </g>
      </g>
    </g>
  </g>
  <g transform="matrix(0.9999999999999999, 0, 0, 0.9999999999999999, 3058.422119140625, 1001.7332763671875)">
    <path class="st7"
      d="M139.8,120.1h-25.1c-1.7,0-3-1.3-3-3v-47c0-1.7,1.3-3,3-3h25.1c1.7,0,3,1.3,3,3v47&#10;&#9;&#9;C142.8,118.8,141.5,120.1,139.8,120.1z"
      style="fill: none; stroke-miterlimit: 10; stroke-width: 2px; stroke: rgb(255, 193, 7);" />
    <path class="st8"
      d="M136.2,112.4h-17.8c-1.2,0-2.1-1-2.1-2.1V76.9c0-1.2,1-2.1,2.1-2.1h17.8c1.2,0,2.1,1,2.1,2.1v33.3&#10;&#9;&#9;C138.3,111.4,137.4,112.4,136.2,112.4z"
      style="fill: none; opacity: 0.7; stroke-miterlimit: 10; stroke: rgb(255, 193, 7);" />
    <line class="st5" x1="124.3" y1="71.3" x2="130.3" y2="71.3"
      style="fill: none; stroke-linecap: round; stroke-linejoin: round; stroke-miterlimit: 10; stroke-width: 2px; stroke: rgb(255, 193, 7);" />
    <circle class="st9" cx="127.3" cy="116" r="1.5" style="fill: rgb(10, 201, 159); stroke: rgb(255, 193, 7);" />
    <path class="st7"
      d="M 43.279 94.34 L 17.171 94.34 C 15.471 94.34 14.171 93.04 14.171 91.34 L 14.171 58.34 C 14.171 56.64 15.471 55.34 17.171 55.34 L 51.271 55.34 C 52.971 55.34 54.271 56.64 54.271 58.34 L 54.271 80.512"
      style="fill: none; stroke-miterlimit: 10; stroke-width: 2px; stroke: rgb(218, 41, 28);" />
    <path class="st7"
      d="M 80.22 119.991 L 46.12 119.991 C 44.42 119.991 43.12 118.691 43.12 116.991 L 43.12 83.991 C 43.12 82.291 44.42 80.991 46.12 80.991 L 80.22 80.991 C 81.92 80.991 83.22 82.291 83.22 83.991 L 83.22 116.991 C 83.22 118.691 81.92 119.991 80.22 119.991 Z"
      style="fill: none; stroke-miterlimit: 10; stroke-width: 2px; stroke: rgb(218, 41, 28);" />
    <path class="st7"
      d="M 347.532 190.4 L 322.432 190.4 C 321.582 190.4 319.458 190.384 319.458 190.384 C 319.458 190.384 319.432 188.25 319.432 187.4 L 319.432 140.4 C 319.432 138.7 320.732 137.4 322.432 137.4 L 347.532 137.4 C 349.232 137.4 350.532 138.7 350.532 140.4 L 350.532 187.4 C 350.532 188.25 350.515 190.411 350.515 190.411 C 350.515 190.411 348.382 190.4 347.532 190.4 Z"
      style="fill: none; stroke-miterlimit: 10; stroke-width: 2px; stroke: rgb(255, 193, 7);" />
    <path class="st7"
      d="M 337.832 137.075 L 337.836 126.626 C 337.836 124.926 339.136 123.626 340.836 123.626 L 365.936 123.626 C 367.636 123.626 368.936 124.926 368.936 126.626 L 368.928 148.89 M 368.915 183.623 L 368.914 187.423 C 368.914 188.273 368.897 190.434 368.897 190.434 C 368.897 190.434 366.764 190.423 365.914 190.423 L 340.814 190.423 C 339.964 190.423 337.84 190.407 337.84 190.407"
      style="fill: none; stroke-miterlimit: 10; stroke-width: 2px; stroke: rgb(255, 193, 7);" />
    <path class="st7"
      d="M 347.31 86.762 C 347.31 86.762 347.296 85.746 347.296 85.341 L 347.296 62.963 C 347.296 62.154 348.014 61.535 348.954 61.535 L 362.822 61.535 C 363.761 61.535 364.48 62.154 364.48 62.963 L 364.48 85.341 C 364.48 85.746 364.47 86.775 364.47 86.775"
      style="fill: none; stroke-miterlimit: 10; stroke-width: 2px; stroke: rgb(255, 152, 0);" />
  </g>
</svg>