<?xml version="1.0" encoding="utf-8"?>
<svg viewBox="3372.666 1016.919 83.722 72.594" xmlns="http://www.w3.org/2000/svg">
  <g transform="matrix(1, 0, 0, 1, 3058.422119140625, 1001.7332763671875)">
    <path class="st7"
      d="M139.8,120.1h-25.1c-1.7,0-3-1.3-3-3v-47c0-1.7,1.3-3,3-3h25.1c1.7,0,3,1.3,3,3v47&#10;&#9;&#9;C142.8,118.8,141.5,120.1,139.8,120.1z"
      style="fill: none; stroke-miterlimit: 10; stroke-width: 2px; stroke: rgb(255, 193, 7);" />
    <path class="st8"
      d="M136.2,112.4h-17.8c-1.2,0-2.1-1-2.1-2.1V76.9c0-1.2,1-2.1,2.1-2.1h17.8c1.2,0,2.1,1,2.1,2.1v33.3&#10;&#9;&#9;C138.3,111.4,137.4,112.4,136.2,112.4z"
      style="fill: none; opacity: 0.7; stroke-miterlimit: 10; stroke: rgb(255, 193, 7);" />
    <line class="st5" x1="124.3" y1="71.3" x2="130.3" y2="71.3"
      style="fill: none; stroke-linecap: round; stroke-linejoin: round; stroke-miterlimit: 10; stroke-width: 2px; stroke: rgb(255, 193, 7);" />
    <circle class="st9" cx="127.3" cy="116" r="1.5" style="fill: rgb(10, 201, 159); stroke: rgb(255, 193, 7);" />
    <path class="st7"
      d="M 43.279 94.34 L 17.171 94.34 C 15.471 94.34 14.171 93.04 14.171 91.34 L 14.171 58.34 C 14.171 56.64 15.471 55.34 17.171 55.34 L 51.271 55.34 C 52.971 55.34 54.271 56.64 54.271 58.34 L 54.271 80.512"
      style="fill: none; stroke-miterlimit: 10; stroke-width: 2px; stroke: rgb(255, 193, 7);" />
    <path class="st7"
      d="M 80.22 119.991 L 46.12 119.991 C 44.42 119.991 43.12 118.691 43.12 116.991 L 43.12 83.991 C 43.12 82.291 44.42 80.991 46.12 80.991 L 80.22 80.991 C 81.92 80.991 83.22 82.291 83.22 83.991 L 83.22 116.991 C 83.22 118.691 81.92 119.991 80.22 119.991 Z"
      style="fill: none; stroke-miterlimit: 10; stroke-width: 2px; stroke: rgb(255, 193, 7);" />
    <path class="st7"
      d="M 347.532 190.4 L 322.432 190.4 C 321.582 190.4 319.458 190.384 319.458 190.384 C 319.458 190.384 319.432 188.25 319.432 187.4 L 319.432 140.4 C 319.432 138.7 320.732 137.4 322.432 137.4 L 347.532 137.4 C 349.232 137.4 350.532 138.7 350.532 140.4 L 350.532 187.4 C 350.532 188.25 350.515 190.411 350.515 190.411 C 350.515 190.411 348.382 190.4 347.532 190.4 Z"
      style="fill: none; stroke-miterlimit: 10; stroke-width: 2px; stroke: rgb(255, 193, 7);" />
    <path class="st7"
      d="M 337.832 137.075 L 337.836 126.626 C 337.836 124.926 339.136 123.626 340.836 123.626 L 365.936 123.626 C 367.636 123.626 368.936 124.926 368.936 126.626 L 368.928 148.89 M 368.915 183.623 L 368.914 187.423 C 368.914 188.273 368.897 190.434 368.897 190.434 C 368.897 190.434 366.764 190.423 365.914 190.423 L 340.814 190.423 C 339.964 190.423 337.84 190.407 337.84 190.407"
      style="fill: none; stroke-miterlimit: 10; stroke-width: 2px; stroke: rgb(255, 193, 7);" />
    <path class="st7"
      d="M 347.31 86.762 C 347.31 86.762 347.296 85.746 347.296 85.341 L 347.296 62.963 C 347.296 62.154 348.014 61.535 348.954 61.535 L 362.822 61.535 C 363.761 61.535 364.48 62.154 364.48 62.963 L 364.48 85.341 C 364.48 85.746 364.47 86.775 364.47 86.775"
      style="fill: none; stroke-miterlimit: 10; stroke-width: 2px; stroke: rgb(255, 152, 0);" />
  </g>
  <polygon class="a" points="3394.175 1043.918 3414.525 1043.918 3414.525 1018.007 3397.531 1018.007 3394.175 1043.918"
    style="fill: none; stroke-linecap: round; stroke-linejoin: round; stroke-width: 2px; stroke: rgb(255, 152, 0);" />
  <path class="a"
    d="M 3397.531 1018.007 L 3383.513 1018.007 C 3381.593 1018.005 3379.921 1019.31 3379.46 1021.167 L 3373.824 1043.918 L 3394.175 1043.918"
    style="fill: none; stroke-linecap: round; stroke-linejoin: round; stroke-width: 2px; stroke: rgb(255, 152, 0);" />
  <path class="a"
    d="M 3414.525 1043.918 C 3414.525 1051.721 3406.045 1056.597 3399.261 1052.696 C 3396.114 1050.885 3394.175 1047.54 3394.175 1043.918"
    style="fill: none; stroke-linecap: round; stroke-linejoin: round; stroke-width: 2px; stroke: rgb(255, 152, 0);" />
  <path class="a"
    d="M 3394.175 1043.918 C 3394.175 1051.721 3385.694 1056.597 3378.911 1052.696 C 3375.763 1050.885 3373.824 1047.54 3373.824 1043.918"
    style="fill: none; stroke-linecap: round; stroke-linejoin: round; stroke-width: 2px; stroke: rgb(255, 152, 0);" />
  <polygon class="a" points="3434.876 1043.918 3414.525 1043.918 3414.525 1018.007 3431.52 1018.007 3434.876 1043.918"
    style="fill: none; stroke-linecap: round; stroke-linejoin: round; stroke-width: 2px; stroke: rgb(255, 152, 0);" />
  <path class="a"
    d="M 3431.519 1018.007 L 3445.535 1018.007 C 3447.455 1018.005 3449.129 1019.31 3449.589 1021.167 L 3455.226 1043.918 L 3434.876 1043.918"
    style="fill: none; stroke-linecap: round; stroke-linejoin: round; stroke-width: 2px; stroke: rgb(255, 152, 0);" />
  <path class="a"
    d="M 3414.525 1043.918 C 3414.525 1051.721 3423.003 1056.597 3429.787 1052.696 C 3432.937 1050.885 3434.876 1047.54 3434.876 1043.918"
    style="fill: none; stroke-linecap: round; stroke-linejoin: round; stroke-width: 2px; stroke: rgb(255, 152, 0);" />
  <path class="a"
    d="M 3434.876 1043.918 C 3434.876 1051.721 3443.354 1056.597 3450.137 1052.696 C 3453.287 1050.885 3455.226 1047.54 3455.226 1043.918"
    style="fill: none; stroke-linecap: round; stroke-linejoin: round; stroke-width: 2px; stroke: rgb(255, 152, 0);" />
  <path class="a"
    d="M 3379.721 1053.108 L 3379.721 1084.147 C 3379.721 1086.442 3381.589 1088.305 3383.895 1088.305 L 3445.155 1088.305 C 3447.46 1088.305 3449.33 1086.442 3449.33 1084.147 L 3449.33 1053.11"
    style="fill: none; stroke-linecap: round; stroke-linejoin: round; stroke-width: 2px; stroke: rgb(255, 152, 0);" />
  <line style="fill: rgb(216, 216, 216); stroke: rgb(255, 152, 0); stroke-linecap: round;" x1="3420.866" y1="1076.627"
    x2="3420.017" y2="1076.627" />
</svg>