<?xml version="1.0" encoding="utf-8"?>
<svg viewBox="249.011 159.592 33.319 55.258" xmlns="http://www.w3.org/2000/svg">
  <g transform="matrix(1, 0, 0, 1, 138.43934631347656, 93.6242446899414)">
    <path class="st7" d="M139.8,120.1h-25.1c-1.7,0-3-1.3-3-3v-47c0-1.7,1.3-3,3-3h25.1c1.7,0,3,1.3,3,3v47&#10;&#9;&#9;C142.8,118.8,141.5,120.1,139.8,120.1z" style="fill: none; stroke: rgb(10, 201, 159); stroke-miterlimit: 10; stroke-width: 2px;"/>
    <path class="st8" d="M136.2,112.4h-17.8c-1.2,0-2.1-1-2.1-2.1V76.9c0-1.2,1-2.1,2.1-2.1h17.8c1.2,0,2.1,1,2.1,2.1v33.3&#10;&#9;&#9;C138.3,111.4,137.4,112.4,136.2,112.4z" style="fill: none; opacity: 0.7; stroke: rgb(10, 201, 159); stroke-miterlimit: 10;"/>
    <line class="st5" x1="124.3" y1="71.3" x2="130.3" y2="71.3" style="fill: none; stroke: #0AC99F; stroke-linecap: round; stroke-linejoin: round; stroke-miterlimit: 10; stroke-width: 2px;"/>
    <circle class="st9" cx="127.3" cy="116" r="1.5" style="fill: #0AC99F;"/>
  </g>
  <g transform="matrix(1, 0, 0, 1, 286.73236083984375, 39.548244476318345)">
    <g>
      <g transform="matrix(1, 0, 0, 1, 0, -20)">
        <path d="M -21.356 159.001 C -22.591 159.146 -23.549 159.556 -24.46 160.316 C -25.649 161.306 -26.376 162.858 -26.382 164.41 C -26.388 164.932 -26.316 165.328 -26.125 165.942 C -25.57 167.686 -23.932 170.545 -21.72 173.636 C -21.033 174.6 -20.934 174.679 -20.696 174.494 C -20.458 174.303 -18.464 171.384 -17.652 170.043 C -16.463 168.069 -15.73 166.49 -15.479 165.387 C -15.248 164.377 -15.393 163.221 -15.882 162.171 C -16.627 160.573 -18.087 159.431 -19.83 159.087 C -20.181 159.021 -21.079 158.962 -21.356 159.001 Z M -20.201 161.695 C -19.468 161.92 -18.854 162.574 -18.675 163.334 C -18.589 163.69 -18.622 164.265 -18.734 164.595 C -18.926 165.136 -19.348 165.612 -19.85 165.863 C -20.359 166.107 -20.821 166.174 -21.33 166.068 C -22.393 165.843 -23.139 164.932 -23.146 163.856 C -23.146 163.479 -23.087 163.234 -22.915 162.865 C -22.578 162.171 -21.905 161.683 -21.152 161.603 C -20.782 161.57 -20.557 161.59 -20.201 161.695 Z" style="fill: #0AC99F;"/>
      </g>
    </g>
  </g>
</svg>