<?xml version="1.0" encoding="utf-8"?>
<svg viewBox="47.637 2.146 452.363 497.854" xmlns="http://www.w3.org/2000/svg">
  <g transform="matrix(9.083025932312012, 0, 0, 9.083025932312012, -881.99658203125, -598.8264770507812)" style="">
    <path class="st7" d="M139.8,120.1h-25.1c-1.7,0-3-1.3-3-3v-47c0-1.7,1.3-3,3-3h25.1c1.7,0,3,1.3,3,3v47&#10;&#9;&#9;C142.8,118.8,141.5,120.1,139.8,120.1z" style="fill: none; stroke: rgb(10, 201, 159); stroke-miterlimit: 10; stroke-width: 1.32115px;"/>
    <line class="st5" x1="122.942" y1="67.911" x2="131.558" y2="67.911" style="fill: none; stroke: rgb(10, 201, 159); stroke-linecap: round; stroke-linejoin: round; stroke-miterlimit: 10; stroke-width: 2.86248px;"/>
    <circle class="st9" cx="127.25" cy="116.013" r="2.172" style="fill: rgb(10, 201, 159); stroke-dashoffset: 9.34px;"/>
  </g>
  <path style="fill: rgba(216, 216, 216, 0); stroke: rgb(10, 201, 159); stroke-width: 11px;" d="M 272.842 186.798 C 326.015 186.798 359.248 244.36 332.662 290.409 C 320.872 310.829 299.48 323.825 275.923 324.877 C 222.776 326.063 188.276 269.271 213.822 222.652 C 225.678 201.016 248.177 187.348 272.842 186.798 Z" transform="matrix(1, 0, 0, 1, 1.1368683772161603e-13, 0)"/>
  <line style="fill: rgb(216, 216, 216); stroke: rgb(10, 201, 159); stroke-width: 22px; stroke-linecap: round;" x1="246.059" y1="159.15" x2="300.823" y2="159.16" transform="matrix(1, 0, 0, 1, 1.1368683772161603e-13, 0)"/>
  <line style="fill: rgb(216, 216, 216); stroke: rgb(10, 201, 159); stroke-width: 34px;" x1="273.85" y1="186.137" x2="273.905" y2="162.812" transform="matrix(1, 0, 0, 1, 1.1368683772161603e-13, 0)"/>
  <line style="fill: rgb(216, 216, 216); stroke: rgb(10, 201, 159); stroke-width: 22px;" x1="321.989" y1="203.659" x2="337.907" y2="186.577" transform="matrix(1, 0, 0, 1, 1.1368683772161603e-13, 0)"/>
  <line style="fill: rgb(216, 216, 216); stroke: rgb(10, 201, 159); stroke-width: 22px; stroke-linecap: round;" x1="325.144" y1="200.273" x2="341.062" y2="183.191" transform="matrix(1, 0, 0, 1, 1.1368683772161603e-13, 0)"/>
  <line style="fill: rgb(216, 216, 216); stroke: rgb(10, 201, 159); stroke-width: 11px; stroke-linecap: round;" x1="273.347" y1="215.586" x2="272.841" y2="259.398" transform="matrix(1, 0, 0, 1, 1.1368683772161603e-13, 0)"/>
</svg>