<?xml version="1.0" encoding="utf-8"?>
<svg viewBox="3376.183 1112.418 92.11 81.393" xmlns="http://www.w3.org/2000/svg">
  <g transform="matrix(1, 0, 0, 1, 3058.422119140625, 1001.7332763671875)">
    <path class="st7"
      d="M139.8,120.1h-25.1c-1.7,0-3-1.3-3-3v-47c0-1.7,1.3-3,3-3h25.1c1.7,0,3,1.3,3,3v47&#10;&#9;&#9;C142.8,118.8,141.5,120.1,139.8,120.1z"
      style="fill: none; stroke-miterlimit: 10; stroke-width: 2px; stroke: rgb(255, 193, 7);" />
    <path class="st8"
      d="M136.2,112.4h-17.8c-1.2,0-2.1-1-2.1-2.1V76.9c0-1.2,1-2.1,2.1-2.1h17.8c1.2,0,2.1,1,2.1,2.1v33.3&#10;&#9;&#9;C138.3,111.4,137.4,112.4,136.2,112.4z"
      style="fill: none; opacity: 0.7; stroke-miterlimit: 10; stroke: rgb(255, 193, 7);" />
    <line class="st5" x1="124.3" y1="71.3" x2="130.3" y2="71.3"
      style="fill: none; stroke-linecap: round; stroke-linejoin: round; stroke-miterlimit: 10; stroke-width: 2px; stroke: rgb(255, 193, 7);" />
    <circle class="st9" cx="127.3" cy="116" r="1.5" style="fill: rgb(10, 201, 159); stroke: rgb(255, 193, 7);" />
    <path class="st7"
      d="M 43.279 94.34 L 17.171 94.34 C 15.471 94.34 14.171 93.04 14.171 91.34 L 14.171 58.34 C 14.171 56.64 15.471 55.34 17.171 55.34 L 51.271 55.34 C 52.971 55.34 54.271 56.64 54.271 58.34 L 54.271 80.512"
      style="fill: none; stroke-miterlimit: 10; stroke-width: 2px; stroke: rgb(218, 41, 28);" />
    <path class="st7"
      d="M 80.22 119.991 L 46.12 119.991 C 44.42 119.991 43.12 118.691 43.12 116.991 L 43.12 83.991 C 43.12 82.291 44.42 80.991 46.12 80.991 L 80.22 80.991 C 81.92 80.991 83.22 82.291 83.22 83.991 L 83.22 116.991 C 83.22 118.691 81.92 119.991 80.22 119.991 Z"
      style="fill: none; stroke-miterlimit: 10; stroke-width: 2px; stroke: rgb(218, 41, 28);" />
    <path class="st7"
      d="M 347.532 190.4 L 322.432 190.4 C 321.582 190.4 319.458 190.384 319.458 190.384 C 319.458 190.384 319.432 188.25 319.432 187.4 L 319.432 140.4 C 319.432 138.7 320.732 137.4 322.432 137.4 L 347.532 137.4 C 349.232 137.4 350.532 138.7 350.532 140.4 L 350.532 187.4 C 350.532 188.25 350.515 190.411 350.515 190.411 C 350.515 190.411 348.382 190.4 347.532 190.4 Z"
      style="fill: none; stroke-miterlimit: 10; stroke: rgb(255, 193, 7); stroke-width: 3px;" />
    <path class="st7"
      d="M 337.832 137.075 L 337.836 126.626 C 337.836 124.926 339.136 123.626 340.836 123.626 L 365.936 123.626 C 367.636 123.626 368.936 124.926 368.936 126.626 L 368.928 148.89 M 368.915 183.623 L 368.914 187.423 C 368.914 188.273 368.897 190.434 368.897 190.434 C 368.897 190.434 366.764 190.423 365.914 190.423 L 340.814 190.423 C 339.964 190.423 337.84 190.407 337.84 190.407"
      style="fill: none; stroke-miterlimit: 10; stroke: rgb(255, 193, 7); stroke-width: 3px;" />
    <path class="st7"
      d="M 347.31 86.762 C 347.31 86.762 347.296 85.746 347.296 85.341 L 347.296 62.963 C 347.296 62.154 348.014 61.535 348.954 61.535 L 362.822 61.535 C 363.761 61.535 364.48 62.154 364.48 62.963 L 364.48 85.341 C 364.48 85.746 364.47 86.775 364.47 86.775"
      style="fill: none; stroke-miterlimit: 10; stroke-width: 2px; stroke: rgb(255, 152, 0);" />
  </g>
  <path class="st7"
    d="M 3415.812 1125.578 L 3415.812 1117.136 C 3415.812 1115.436 3417.112 1114.136 3418.812 1114.136 L 3443.912 1114.136 C 3445.612 1114.136 3446.912 1115.436 3446.912 1117.136 L 3446.912 1130.854 L 3446.912 1131.769 M 3446.912 1175.667 L 3446.912 1189.174 C 3446.912 1190.024 3446.895 1192.185 3446.895 1192.185 C 3446.895 1192.185 3444.762 1192.174 3443.912 1192.174 L 3418.812 1192.174 C 3417.962 1192.174 3415.838 1192.158 3415.838 1192.158"
    style="fill: none; stroke-miterlimit: 10; stroke: rgb(255, 193, 7); stroke-width: 3px;" />
  <path class="st7"
    d="M 3444.996 1125.659 C 3445.413 1125.376 3446 1126.086 3446 1126.086 L 3454.922 1134.228 C 3456.492 1135.846 3457.55 1136.726 3457.55 1138.426 L 3457.55 1185.426 C 3457.55 1186.276 3457.533 1188.437 3457.533 1188.437 C 3457.533 1188.437 3455.4 1188.426 3454.55 1188.426 L 3429.45 1188.426 C 3428.6 1188.426 3426.476 1188.41 3426.476 1188.41 C 3426.476 1188.41 3426.45 1186.276 3426.45 1185.426 L 3426.45 1138.426 C 3426.45 1136.726 3427.846 1135.845 3429.4 1134.356 L 3437.773 1126.133 C 3437.773 1126.133 3438.475 1125.428 3438.904 1125.763"
    style="fill: none; stroke-miterlimit: 10; stroke: rgb(255, 193, 7); stroke-width: 3px; transform-origin: 3442px 1157.01px;"
    transform="matrix(0.766043901443, 0.642787992954, -0.642787992954, 0.766043901443, -0.000172283012, 0.000179585496)" />
  <path
    style="fill: rgba(216, 216, 216, 0); stroke: rgb(255, 193, 7); stroke-width: 3px; transform-origin: 3461px 1134.24px;"
    d="M 3461.079 1137.584 C 3463.159 1137.584 3464.72 1135.698 3464.317 1133.672 C 3463.879 1131.131 3460.836 1130.015 3458.839 1131.662 C 3456.842 1133.309 3457.39 1136.484 3459.825 1137.378 C 3460.226 1137.525 3460.652 1137.595 3461.079 1137.584 Z"
    transform="matrix(0.766043901449, 0.64278799295, -0.642787992953, 0.766043901444, -0.000171775137, 0.000067582916)" />
</svg>